<svg width="87" height="27" viewBox="0 0 87 27" fill="none" xmlns="http://www.w3.org/2000/svg">
<path d="M24.2818 11.5736C31.4133 12.0262 38.5448 12.3935 43.1511 12.3935C47.7575 12.3935 54.889 12.0327 62.0205 11.5736L62.4712 0.874634C56.4001 0.789358 49.6663 0.75 43.1511 0.75C36.636 0.75 29.8955 0.789358 23.8311 0.874634L24.2818 11.5736Z" fill="white"/>
<path d="M0.290128 9.77776C0.475706 9.79094 11.6104 10.7421 23.1031 11.4964L22.659 0.882812C12.5185 1.02713 4.4789 1.28951 2.92137 1.65686C0.382917 2.2538 0.0316427 4.22826 0.00513143 5.54021C-0.0081242 6.16339 -0.0081242 7.85579 0.164199 9.75813L0.290128 9.77776Z" fill="white"/>
<path d="M63.1943 11.495C74.6869 10.7472 85.8218 9.79607 86.0074 9.77638L86.1397 9.76327C86.3122 7.86751 86.3122 6.1751 86.2924 5.55193C86.2661 4.23998 85.9146 2.26551 83.3757 1.66858C81.8117 1.30123 73.7792 1.03884 63.6384 0.894531L63.1943 11.495Z" fill="white"/>
<path d="M63.1206 12.6627L62.1729 23.7224C67.9987 22.699 73.2681 21.6036 75.4416 21.0329C80.2336 19.7734 83.1767 18.4025 84.7407 15.6605C85.4101 14.4863 85.7945 12.6955 86.0196 10.9375C84.9197 11.0359 74.1758 11.9412 63.1206 12.6627Z" fill="white"/>
<path d="M61.942 12.7422C54.837 13.1948 47.7452 13.5556 43.1522 13.5556C38.559 13.5556 31.4673 13.1948 24.3623 12.7422L25.3233 23.9331C32.024 25.0876 39.2152 26.0977 43.1522 26.0977C47.0891 26.0977 54.2802 25.0876 60.981 23.9331L61.942 12.7422Z" fill="white"/>
<path d="M23.1756 12.6601C12.1204 11.9385 1.37679 11.0332 0.283203 10.9414C0.501921 12.6994 0.892958 14.4902 1.56237 15.6644C3.11991 18.4063 6.06928 19.7774 10.8612 21.0368C13.0351 21.6075 18.3042 22.6964 24.1301 23.7263L23.1756 12.6601Z" fill="white"/>
</svg>
